<?xml version="1.0" encoding="UTF-8"?>
<svg width="384px" height="266px" viewBox="0 0 384 266" version="1.1" xmlns="http://www.w3.org/2000/svg" xmlns:xlink="http://www.w3.org/1999/xlink">
    <!-- Generator: Sketch 50.2 (55047) - http://www.bohemiancoding.com/sketch -->
    <title>dark-cloud</title>
    <desc>Created with Sketch.</desc>
    <defs></defs>
    <g id="Welcome" stroke="none" stroke-width="1" fill="none" fill-rule="evenodd">
        <g id="Desktop" transform="translate(-640.000000, 0.000000)">
            <g id="landscape" transform="translate(-37.000000, -36.000000)">
                <g id="dark-cloud" transform="translate(677.000000, 35.000000)">
                    <path d="M242.167414,216.572409 C219.481821,213.483403 202,194.03325 202,170.5 C202,144.818759 222.818759,124 248.5,124 C252.732214,124 256.832371,124.565403 260.729056,125.624794 C269.246808,116.039272 281.66813,110 295.5,110 C305.717348,110 315.165029,113.295332 322.838202,118.881153 C330.736112,112.690722 340.687049,109 351.5,109 C377.181241,109 398,129.818759 398,155.5 C398,171.892676 389.517526,186.304164 376.702435,194.584607 C374.456922,211.748124 359.776032,225 342,225 C337.242345,225 332.706406,224.050722 328.571257,222.331239 C321.128238,238.0937 305.087771,249 286.5,249 C265.724025,249 248.130406,235.374713 242.167414,216.572409 Z" id="Combined-Shape-Copy-2" fill="#B3B2B2"></path>
                    <path d="M40.1674144,138.572409 C17.4818206,135.483403 0,116.03325 0,92.5 C0,66.8187591 20.8187591,46 46.5,46 C50.7322139,46 54.8323708,46.5654029 58.7290564,47.6247943 C67.2468081,38.0392723 79.6681302,32 93.5,32 C103.717348,32 113.165029,35.2953319 120.838202,40.881153 C128.736112,34.6907218 138.687049,31 149.5,31 C175.181241,31 196,51.8187591 196,77.5 C196,93.8926759 187.517526,108.304164 174.702435,116.584607 C172.456922,133.748124 157.776032,147 140,147 C135.242345,147 130.706406,146.050722 126.571257,144.331239 C119.128238,160.0937 103.087771,171 84.5,171 C63.7240251,171 46.1304064,157.374713 40.1674144,138.572409 Z" id="Combined-Shape-Copy-3" fill="#BDBDBD"></path>
                    <path d="M249.765286,162.809815 C250.572794,166.242162 251,169.821191 251,173.5 C251,189.892676 242.517526,204.304164 229.702435,212.584607 C227.456922,229.748124 212.776032,243 195,243 C190.242345,243 185.706406,242.050722 181.571257,240.331239 C174.128238,256.0937 158.087771,267 139.5,267 C118.724025,267 101.130406,253.374713 95.1674144,234.572409 C72.4818206,231.483403 55,212.03325 55,188.5 C55,162.818759 75.8187591,142 101.5,142 C105.732214,142 109.832371,142.565403 113.729056,143.624794 C120.379856,136.140263 129.41056,130.817788 139.634384,128.844156 C133.592767,120.997852 130,111.168494 130,100.5 C130,74.8187591 150.818759,54 176.5,54 C180.732214,54 184.832371,54.5654029 188.729056,55.6247943 C197.246808,46.0392723 209.66813,40 223.5,40 C240.844429,40 255.970938,49.4960471 263.964072,63.5726877 C271.622193,48.4029535 287.346226,38 305.5,38 C331.181241,38 352,58.8187591 352,84.5 C352,110.181241 331.181241,131 305.5,131 C304.747041,131 303.998261,130.982104 303.254064,130.946713 C298.658469,144.915385 285.506929,155 270,155 C265.242345,155 260.706406,154.050722 256.571257,152.331239 C254.774996,156.135283 252.47799,159.656488 249.765286,162.809815 Z" id="Combined-Shape" fill="#CFCECE"></path>
                    <path d="M166.167414,108.572409 C143.481821,105.483403 126,86.0332503 126,62.5 C126,36.8187591 146.818759,16 172.5,16 C176.732214,16 180.832371,16.5654029 184.729056,17.6247943 C193.246808,8.03927233 205.66813,2 219.5,2 C236.844429,2 251.970938,11.4960471 259.964072,25.5726877 C267.622193,10.4029535 283.346226,0 301.5,0 C327.181241,0 348,20.8187591 348,46.5 C348,72.1812409 327.181241,93 301.5,93 C300.747041,93 299.998261,92.9821036 299.254064,92.946713 C294.658469,106.915385 281.506929,117 266,117 C261.242345,117 256.706406,116.050722 252.571257,114.331239 C245.128238,130.0937 229.087771,141 210.5,141 C189.724025,141 172.130406,127.374713 166.167414,108.572409 Z" id="Combined-Shape-Copy-5" fill="#BEBEBE"></path>
                    <path d="M259.167414,120.572409 C236.481821,117.483403 219,98.0332503 219,74.5 C219,48.8187591 239.818759,28 265.5,28 C269.732214,28 273.832371,28.5654029 277.729056,29.6247943 C286.246808,20.0392723 298.66813,14 312.5,14 C329.844429,14 344.970938,23.4960471 352.964072,37.5726877 C360.622193,22.4029535 376.346226,12 394.5,12 C420.181241,12 441,32.8187591 441,58.5 C441,84.1812409 420.181241,105 394.5,105 C393.747041,105 392.998261,104.982104 392.254064,104.946713 C387.658469,118.915385 374.506929,129 359,129 C354.242345,129 349.706406,128.050722 345.571257,126.331239 C338.128238,142.0937 322.087771,153 303.5,153 C282.724025,153 265.130406,139.374713 259.167414,120.572409 Z" id="Combined-Shape-Copy-4" fill="#C8C8C8"></path>
                </g>
            </g>
        </g>
    </g>
</svg>