<?xml version="1.0" encoding="UTF-8"?>
<svg width="160px" height="148px" viewBox="0 0 160 148" version="1.1" xmlns="http://www.w3.org/2000/svg" xmlns:xlink="http://www.w3.org/1999/xlink">
    <!-- Generator: Sketch 50.2 (55047) - http://www.bohemiancoding.com/sketch -->
    <title>cycle</title>
    <desc>Created with Sketch.</desc>
    <defs></defs>
    <g id="Symbols" stroke="none" stroke-width="1" fill="none" fill-rule="evenodd">
        <g id="cycle" transform="translate(1.000000, 1.000000)" fill="#D8D8D8" stroke="#979797">
            <path d="M148.712265,94.9356449 C139.390393,124.534116 111.704364,146 79,146 C45.9520132,146 18.0283707,124.080666 9,94 L25.0266488,94 C33.602813,115.670475 54.7597584,131 79.5004697,131 C103.883588,131 124.785788,116.110407 133.594558,94.9356514 L123.523362,94.9356449 L141.451551,64.3518362 L157.581657,94.9356449 L148.712265,94.9356449 Z M9,52 C18.0283707,21.9193344 45.9520132,0 79,0 C112.299602,0 140.396533,22.2543763 149.202924,52.6884822 L134.612327,52.6884822 C126.486597,30.1301036 104.878996,14 79.5004697,14 C54.3818874,14 32.9573784,29.8013645 24.6425328,51.9973403 C24.6422017,51.9982242 24.6418706,51.9991082 24.6415395,51.9999922 L34.0582944,52 L16.1301054,82.5838087 L0,52 L9,52 Z" id="Combined-Shape"></path>
        </g>
    </g>
</svg>