<?xml version="1.0" encoding="UTF-8"?>
<svg width="474px" height="299px" viewBox="0 0 474 299" version="1.1" xmlns="http://www.w3.org/2000/svg" xmlns:xlink="http://www.w3.org/1999/xlink">
    <!-- Generator: Sketch 50.2 (55047) - http://www.bohemiancoding.com/sketch -->
    <title>deadfish</title>
    <desc>Created with Sketch.</desc>
    <defs></defs>
    <g id="Symbols" stroke="none" stroke-width="1" fill="none" fill-rule="evenodd">
        <g id="deadfish" transform="translate(6.000000, 6.000000)" stroke="#000000" stroke-width="5">
            <path d="M331.40625,116 C314.150786,125.809711 327.5156,162.970196 331.40625,199.300183 C335.504651,237.570105 331.097132,275.103003 350.719604,286.258356 C373.675687,299.308863 411.791004,277.120051 465.065556,219.691919 C468.010619,216.517243 453.887923,210.211056 423.714844,211.787109 C416.946004,212.140671 405.087281,214.775608 388.138672,219.691919 C401.926917,210.648923 412.081214,204.518295 418.601562,201.300036 C446.010977,187.771524 462.635432,181.33577 458.771724,178.108109 C394.893799,124.745813 352.438641,104.04311 331.40625,116 Z" id="Path-5" fill="#F0EDED"></path>
            <path d="M331.765625,199.023438 C269.806804,197.457918 225.395346,191.736564 198.53125,181.859375 C171.667154,171.982186 136.247883,148.351978 92.2734375,110.96875" id="Path-6"></path>
            <path d="M215.5,132.5 C204.994628,154.125157 195.645019,169.304194 187.451172,178.037109 C179.257325,186.770025 163.273601,198.590989 139.5,213.5" id="Path-7"></path>
            <path d="M191.5,124.5 C182.070474,144.027249 173.841307,157.57152 166.8125,165.132812 C159.783693,172.694105 146.01286,182.816501 125.5,195.5" id="Path-7-Copy-4"></path>
            <path d="M157.5,118.5 C153.65029,133.584077 149.132712,144.041108 143.947266,149.871094 C138.76182,155.701079 128.446064,161.921131 113,168.53125" id="Path-7-Copy-5"></path>
            <path d="M233,155 C224.821267,169.992056 217.519184,180.841665 211.09375,187.548828 C204.668316,194.255991 191.182639,205.1056 170.636719,220.097656" id="Path-7-Copy"></path>
            <path d="M260.973358,157 C253.511456,171.776784 246.159659,182.964463 238.917969,190.563036 C231.676278,198.161609 217.703622,209.349288 197,224.126072" id="Path-7-Copy-2"></path>
            <path d="M82.7732321,118.03977 C58.0029289,115.948107 41.5934331,105.893 33.5447448,87.8744472 C25.4960565,69.8558947 17.5731943,47.1508446 9.77615817,19.7592968 C14.7216941,25.9935845 18.7939223,30.014395 21.9928427,31.8217282 C23.5173976,32.6830746 23.3207932,39.114122 28.9002471,41.485045 C31.0107825,42.3818921 38.0678475,38.9385004 42.5742248,40.7846949 C44.261136,41.4757969 42.8663178,48.5350248 46.3210332,49.9402193 C48.6241767,50.8770157 52.6399867,49.9679712 58.3684631,47.213086 C66.9776584,51.8826544 72.3556971,52.9280393 74.5025795,50.3492405 C76.6494618,47.7704417 75.6168165,41.5054438 71.4046434,31.5542467 C77.7940331,31.2784735 81.6886054,30.299906 83.0883603,28.6185441 C84.4881152,26.9371822 84.5971222,23.106718 83.4153812,17.1271516 L91.6487515,7.23736644 C95.7378067,39.864916 97.133658,64.2767968 95.8363054,80.4730088 C94.5389527,96.6692207 90.1845949,109.191474 82.7732321,118.03977 Z" id="Path-8" fill="#F0EDED" transform="translate(53.040589, 62.638568) rotate(-11.000000) translate(-53.040589, -62.638568) "></path>
            <path d="M363.972756,144.453701 L409.113578,174.994333" id="Path-9"></path>
            <path d="M393.943151,144.271381 L372.020075,173.768518" id="Path-10"></path>
            <path d="M285.82764,170.414638 C279.229284,184.691653 272.387818,194.488283 265.303243,199.804528 C258.218667,205.120772 244.272373,210.923217 223.464359,217.211862" id="Path-11" transform="translate(254.646000, 193.813250) rotate(-13.000000) translate(-254.646000, -193.813250) "></path>
            <path d="M311.42197,174.300433 C305.90531,187.727891 300.185394,196.941571 294.262223,201.941471 C288.339052,206.941372 276.679033,212.398541 259.282164,218.312978" id="Path-11-Copy" transform="translate(285.352067, 196.306706) rotate(-13.000000) translate(-285.352067, -196.306706) "></path>
        </g>
    </g>
</svg>