<?xml version="1.0" encoding="UTF-8"?>
<svg width="565px" height="308px" viewBox="0 0 565 308" version="1.1" xmlns="http://www.w3.org/2000/svg" xmlns:xlink="http://www.w3.org/1999/xlink">
    <!-- Generator: Sketch 50.2 (55047) - http://www.bohemiancoding.com/sketch -->
    <title>flap</title>
    <desc>Created with Sketch.</desc>
    <defs></defs>
    <g id="Symbols" stroke="none" stroke-width="1" fill="none" fill-rule="evenodd">
        <g id="flap" transform="translate(1.000000, 1.000000)" fill="#000000" stroke="#000000" stroke-width="3">
            <polygon id="Path-3" points="55.2226563 199.054687 23.4570313 234.347656 0.68359375 242.253906 0.68359375 205.878906 69.59375 163.503906 113.871094 100.886719 241.222656 21.9882813 298.066406 14.6484375 328.859375 0.73828125 345.101562 0.73828125 352.007813 14.6484375 373.294475 18.0451865 355.445701 21.9882813 370.041564 28.8789033 356.544386 32.4903448 334.111884 54.1851241 561.509766 205.878906 551.296875 215.533203 528.869141 211.722656 555.523438 239.125 551.296875 245.234375 531.914062 245.234375 513.882812 234.347656 528.869141 253.804688 513.882812 260.480469 492.654297 249.431641 492.654297 260.480469 479.089844 264.580078 459.148438 253.804688 445.689453 260.480469 431.988281 253.804688 417.507812 264.580078 405.369141 260.480469 417.507812 293.910156 405.369141 293.910156 396.494141 293.910156 379.980469 274.025391 389.478516 299.367188 373.294475 304.847656 362.363281 293.910156 347.904297 299.367188 334.111884 280.910156 323.916016 284.339844 308.289062 268.951172 291.228516 268.951172 281.09668 256.773438 268.515625 256.773438 258.267578 245.234375 246.121094 249.431641 237.632812 234.347656 224.757812 231.160156 218.271484 221.605469 202.474609 211.722656 186.529297 209.091797 186.529297 199.054688 167.640625 199.054688 167.640625 189.644531 156.148438 186.964844 138.267578 205.878906 125.919922 221.605469 113.871094 221.605469 125.919922 215.533203 130.595703 209.091797 113.871094 209.091797 125.919922 202.601562 125.919922 189.644531 143.693359 175.96875 125.919922 163.503906 44.6914063 221.605469 60.9101562 199.054688"></polygon>
            <path d="M257.255859,42.4375 L294.884766,58.3769531 L331.648438,101.4375 L382.447266,163.03125 C414.228516,223.522135 430.119141,253.767578 430.119141,253.767578" id="Path-4"></path>
        </g>
    </g>
</svg>