<?xml version="1.0" encoding="UTF-8"?>
<svg width="415px" height="452px" viewBox="0 0 415 452" version="1.1" xmlns="http://www.w3.org/2000/svg" xmlns:xlink="http://www.w3.org/1999/xlink">
    <!-- Generator: Sketch 50.2 (55047) - http://www.bohemiancoding.com/sketch -->
    <title>flip</title>
    <desc>Created with Sketch.</desc>
    <defs></defs>
    <g id="Symbols" stroke="none" stroke-width="1" fill="none" fill-rule="evenodd">
        <polygon id="flip" stroke="#000000" stroke-width="3" fill="#000000" transform="translate(158.069403, 273.812117) rotate(37.000000) translate(-158.069403, -273.812117) " points="169.984549 111.890701 73.4925159 89.7445286 -15.9315612 65 -22.5129936 70.9331801 -15.9315612 78.6360223 16.2578452 91.9539331 -2.40915018 89.7445286 -33.2459145 88.4453506 -41.7079472 101.916971 -29.9164368 105.396148 -6.66756686 109.761493 -45 109.761493 -45 122.362985 -25.5123304 129.51381 -33.2459145 133.75886 -33.2459145 141.401556 -13.8237385 150.610749 -13.8237385 158.852242 3.62026528 171.850705 13.5285022 178.270409 19.9629083 175.216271 19.9629083 182.575606 28.263212 182.575606 23.7214355 195.893517 26.4521152 201.394974 33.9344179 203.346415 37.9843246 201.394974 37.9843246 203.346415 45.3423233 206.706634 45.3423233 218.383197 62.4922744 226.497713 65.8992751 239.747457 83.4314947 243.432471 86.7422599 251.052444 98.6032736 255.302841 109.497923 270.199279 113.975543 272.471504 113.975543 275.997463 127.36563 285.165221 107.638709 336.132561 103.876172 354.818269 109.497923 369.655897 98.6032736 380.642773 103.876172 395.763761 98.6032736 401.003244 100.936982 409.049593 98.6032736 419.135598 103.876172 429.582486 98.6032736 438.885242 103.876172 450.132755 107.638709 450.132755 107.638709 455.461791 120.570341 462.24104 113.975543 468.970836 120.570341 468.970836 116.684837 474.67011 132.045077 470.974403 136.773978 466.49812 129.484146 482.624234 139.24803 482.624234 143.166949 480.136816 146.487071 482.624234 177.277054 464.044118 179.146961 455.461791 197.132289 438.885242 200.38959 432.202228 217.007574 401.003244 220.831594 383.203704 235.969958 371.945498 250.334429 366.345132 258.375432 363.574355 284.349635 354.818269 286.739481 361.616231 273.990963 376.876226 273.990963 383.203704 280.333144 385.681766 278.016811 380.642773 286.739481 369.655897 291.894758 371.945498 291.894758 376.876226 286.739481 380.642773 293.848872 380.642773 293.848872 388.627638 291.894758 392.759078 298.623217 388.627638 302.991235 385.681766 302.991235 363.574355 298.623217 359.198317 302.991235 351.269589 302.991235 336.132561 306.73506 324.465355 302.991235 315.233439 306.73506 294.831533 323.983919 272.471504 334.275761 239.747457 334.275761 218.383197 341.744698 182.575606 341.744698 150.610749 346.406769 141.401556 355.602596 133.75886 361.138805 129.51381 350.031636 126.672192 361.138805 122.362985 350.031636 117.066027 341.744698 117.066027 328.969448 111.890701 316.025786 114.204361 286.739481 84.9848858 273.990963 88.4453506 275.886266 95.9223069 291.894758 126.672192 273.990963 114.204361 256.552306 122.362985 275.886266 145.047808 253.147978 138.718994 242.497927 148.787623 246.621346 160.612548 220.831594 129.51381 208.500097 111.890701 166.661754 98.2279469 164.079437 101.916971"></polygon>
    </g>
</svg>