<?xml version="1.0" encoding="UTF-8"?>
<svg width="1024px" height="1024px" viewBox="0 0 1024 1024" version="1.1" xmlns="http://www.w3.org/2000/svg" xmlns:xlink="http://www.w3.org/1999/xlink">
    <!-- Generator: Sketch 50.2 (55047) - http://www.bohemiancoding.com/sketch -->
    <title>landscape</title>
    <desc>Created with Sketch.</desc>
    <defs></defs>
    <g id="Welcome" stroke="none" stroke-width="1" fill="none" fill-rule="evenodd">
        <g id="Desktop">
            <g id="landscape" transform="translate(-63.000000, -41.000000)">
                <rect id="Rectangle-2" fill="#D1ECEF" x="63" y="41" width="1024" height="1024"></rect>
                <path d="M275.93212,191.240059 C275.977154,191.987517 276,192.741053 276,193.5 C276,213.658393 259.882251,230 240,230 C220.498313,230 204.618395,214.277992 204.017629,194.653266 C186.493372,192.193434 173,176.944376 173,158.5 C173,138.341607 189.117749,122 209,122 C209.719683,122 210.434434,122.021411 211.143666,122.06364 C216.160027,108.028188 229.424952,98 245,98 C257.211272,98 268.002511,104.164324 274.511734,113.591237 C276.61637,113.202853 278.78482,113 281,113 C295.475769,113 307.956002,121.662574 313.672992,134.153798 C314.768533,134.052016 315.878275,134 317,134 C336.882251,134 353,150.341607 353,170.5 C353,190.658393 336.882251,207 317,207 C302.524231,207 290.043998,198.337426 284.327008,185.846202 C284.149612,185.862683 283.971849,185.877859 283.793722,185.89172 C281.428502,188.005365 278.787364,189.809035 275.93212,191.240059 Z" id="Combined-Shape" fill="#F4F2F2"></path>
                <path d="M384.93212,142.240059 C384.977154,142.987517 385,143.741053 385,144.5 C385,164.658393 368.882251,181 349,181 C329.498313,181 313.618395,165.277992 313.017629,145.653266 C295.493372,143.193434 282,127.944376 282,109.5 C282,89.3416066 298.117749,73 318,73 C318.719683,73 319.434434,73.0214115 320.143666,73.0636404 C325.160027,59.0281877 338.424952,49 354,49 C366.211272,49 377.002511,55.1643235 383.511734,64.5912372 C385.61637,64.2028531 387.78482,64 390,64 C404.475769,64 416.956002,72.6625741 422.672992,85.1537985 C423.768533,85.0520159 424.878275,85 426,85 C445.882251,85 462,101.341607 462,121.5 C462,141.658393 445.882251,158 426,158 C411.524231,158 399.043998,149.337426 393.327008,136.846202 C393.149612,136.862683 392.971849,136.877859 392.793722,136.89172 C390.428502,139.005365 387.787364,140.809035 384.93212,142.240059 Z" id="Combined-Shape-Copy" fill="#F4F2F2"></path>
                <path d="M63,582 L179.643439,494.047419 L203.861748,494.047419 C293.30174,556.697419 362.691974,588.822344 412.032452,590.422194 C486.043168,592.821968 573.946016,528.63848 698.281524,533.285578 C822.617033,537.932677 866.135457,619.98099 934.481202,609.948964 C980.045031,603.260946 1030.88463,593.944625 1087,582 L1087,1065 L63,1065 L63,582 Z" id="Rectangle-3" fill="#A0C099"></path>
                <path d="M567.878111,551.211394 L692.919924,628.705296 L667.80949,634.561562 C626.561103,636.484403 595.624606,638.264366 575,639.901453 C554.375394,641.538539 529.778232,644.166582 501.208514,647.785582 L420.020949,658.655805 C393.421346,660.250668 378.449228,660.912572 375.104595,660.641516 C371.759961,660.37046 368.665725,659.708556 365.821887,658.655805 L418.370957,590.676453 C431.607475,589.969904 443.691355,588.173882 454.622597,585.288387 C465.55384,582.402892 503.305677,571.043894 567.878111,551.211394 Z" id="Path-4" fill="#AFCEA9"></path>
                <path d="M63,652 C131.636104,631.250064 182.609392,620.875096 215.919867,620.875096 C225.468018,620.875096 330.222055,659.212193 382.010197,660.917072 C425.299289,662.342161 540.240195,636.864642 659.207478,635.344838 C685.460805,635.009452 769.010443,612.286324 909.856391,567.175454 C921.628862,566.605264 929.77151,566.605264 934.284334,567.175454 C963.025297,570.806836 1013.93052,599.081685 1087,652 L1087,1065 L63,1065 L63,652 Z" id="Rectangle" fill="#8AA783"></path>
                <path d="M63,698.670916 C113.403098,679.647672 163.15417,670.13605 212.253214,670.13605 C244.397833,670.13605 393.655998,691.469167 637.913,705.183025 C684.821278,707.816699 735.233225,710.169366 788.992208,712.035961 C842.751191,713.902556 855.98474,671.916046 899.996623,670.13605 C934.795107,668.728676 997.129566,678.240298 1087,698.670916 L1087,1064.67092 L63,1064.67092 L63,698.670916 Z" id="Rectangle-4" fill="#7A9973"></path>
                <polygon id="Rectangle-5" fill="#90C3C8" points="441.524979 588 447.81658 588 424.047345 613.437034 452.662419 654.480777 478.801562 650.785394 511.765953 669.663247 564.330019 700.912277 640.359375 705.392578 598.480469 761.564453 613.441936 790.849182 692.068046 920 517.286523 920 486.534352 772.89949 564.330019 700.912277 517.286523 696.177734 489.363444 685.121972 460.640163 653.522703 436.107414 656.728712 411 615.279255"></polygon>
                <rect id="Rectangle-6" stroke="#979797" fill="#A9937F" x="63.5" y="920.5" width="1023" height="144"></rect>
                <path d="M63,968 L1087,968 L1087,1034 C1039.70422,1015.36797 1004.17167,1005.19287 980.402344,1003.4747 C956.633018,1001.75653 924.418174,1007.03449 883.757812,1019.30859 C849.267706,1033.83492 825.809372,1041.74508 813.382812,1043.03906 C768.127169,1047.75155 741.824629,1033.51782 714.886719,1034 C694.864972,1034.35839 601.515625,1002.86719 503.023438,1025.05469 C437.361979,1039.84635 290.6875,1042.82812 63,1034 L63,968 Z" id="Rectangle-10" fill="#D5B496"></path>
                <path d="M40.1674144,122.572409 C17.4818206,119.483403 0,100.03325 0,76.5 C0,50.8187591 20.8187591,30 46.5,30 C50.7322139,30 54.8323708,30.5654029 58.7290564,31.6247943 C67.2468081,22.0392723 79.6681302,16 93.5,16 C102.591834,16 111.074231,18.609311 118.239183,23.119925 C125.711695,17.9971758 134.755834,15 144.5,15 C145.338705,15 146.172223,15.0222045 147,15.0660577 C147.827777,15.0222045 148.661295,15 149.5,15 C152.254009,15 154.9521,15.2394163 157.574594,15.6985709 C166.058313,6.65186671 178.119124,1 191.5,1 C201.717348,1 211.165029,4.29533189 218.838202,9.88115303 C226.736112,3.69072181 236.687049,0 247.5,0 C273.181241,0 294,20.8187591 294,46.5 C294,62.8926759 285.517526,77.3041639 272.702435,85.584607 C270.456922,102.748124 255.776032,116 238,116 C233.242345,116 228.706406,115.050722 224.571257,113.331239 C217.128238,129.0937 201.087771,140 182.5,140 C170.941181,140 160.3674,135.782552 152.233526,128.802524 C148.425433,130.223334 144.303417,131 140,131 C135.242345,131 130.706406,130.050722 126.571257,128.331239 C119.128238,144.0937 103.087771,155 84.5,155 C63.7240251,155 46.1304064,141.374713 40.1674144,122.572409 Z" id="Combined-Shape" fill="#F4F2F2"></path>
                <path d="M945.167414,256.572409 C922.481821,253.483403 905,234.03325 905,210.5 C905,184.818759 925.818759,164 951.5,164 C955.732214,164 959.832371,164.565403 963.729056,165.624794 C972.246808,156.039272 984.66813,150 998.5,150 C1008.71735,150 1018.16503,153.295332 1025.8382,158.881153 C1033.73611,152.690722 1043.68705,149 1054.5,149 C1080.18124,149 1101,169.818759 1101,195.5 C1101,211.892676 1092.51753,226.304164 1079.70243,234.584607 C1077.45692,251.748124 1062.77603,265 1045,265 C1040.24235,265 1035.70641,264.050722 1031.57126,262.331239 C1024.12824,278.0937 1008.08777,289 989.5,289 C968.724025,289 951.130406,275.374713 945.167414,256.572409 Z" id="Combined-Shape-Copy-2" fill="#B3B2B2"></path>
                <path d="M743.167414,178.572409 C720.481821,175.483403 703,156.03325 703,132.5 C703,106.818759 723.818759,86 749.5,86 C753.732214,86 757.832371,86.5654029 761.729056,87.6247943 C770.246808,78.0392723 782.66813,72 796.5,72 C806.717348,72 816.165029,75.2953319 823.838202,80.881153 C831.736112,74.6907218 841.687049,71 852.5,71 C878.181241,71 899,91.8187591 899,117.5 C899,133.892676 890.517526,148.304164 877.702435,156.584607 C875.456922,173.748124 860.776032,187 843,187 C838.242345,187 833.706406,186.050722 829.571257,184.331239 C822.128238,200.0937 806.087771,211 787.5,211 C766.724025,211 749.130406,197.374713 743.167414,178.572409 Z" id="Combined-Shape-Copy-3" fill="#BDBDBD"></path>
                <path d="M952.765286,202.809815 C953.572794,206.242162 954,209.821191 954,213.5 C954,229.892676 945.517526,244.304164 932.702435,252.584607 C930.456922,269.748124 915.776032,283 898,283 C893.242345,283 888.706406,282.050722 884.571257,280.331239 C877.128238,296.0937 861.087771,307 842.5,307 C821.724025,307 804.130406,293.374713 798.167414,274.572409 C775.481821,271.483403 758,252.03325 758,228.5 C758,202.818759 778.818759,182 804.5,182 C808.732214,182 812.832371,182.565403 816.729056,183.624794 C823.379856,176.140263 832.41056,170.817788 842.634384,168.844156 C836.592767,160.997852 833,151.168494 833,140.5 C833,114.818759 853.818759,94 879.5,94 C883.732214,94 887.832371,94.5654029 891.729056,95.6247943 C900.246808,86.0392723 912.66813,80 926.5,80 C943.844429,80 958.970938,89.4960471 966.964072,103.572688 C974.622193,88.4029535 990.346226,78 1008.5,78 C1034.18124,78 1055,98.8187591 1055,124.5 C1055,150.181241 1034.18124,171 1008.5,171 C1007.74704,171 1006.99826,170.982104 1006.25406,170.946713 C1001.65847,184.915385 988.506929,195 973,195 C968.242345,195 963.706406,194.050722 959.571257,192.331239 C957.774996,196.135283 955.47799,199.656488 952.765286,202.809815 Z" id="Combined-Shape" fill="#CFCECE"></path>
                <path d="M63,920 L849.15625,920 C874.594618,903.920573 890.462457,895.880859 896.759766,895.880859 C903.057075,895.880859 918.344835,903.920573 942.623047,920 L1087,920 L1087,968 C1069.104,981.168891 1055.04801,988.335558 1044.83203,989.5 C1034.61605,990.664442 1007.4559,988.195692 963.351562,982.09375 L849.15625,982.09375 L754.136719,968 C643.621094,982.333333 560.203125,989.5 503.882812,989.5 C491.561701,989.5 478.399515,974.060989 457.402344,973.375 C407.414496,971.741871 275.947048,969.950204 63,968 L63,920 Z" id="Rectangle-9" fill="#BCAEA2"></path>
                <path d="M297.998649,919.819925 C341.029624,919.819925 468.449219,918.889924 484.261719,918.889924 C500.074219,918.889924 342.838839,833.621708 275.69941,824.152868 C208.55998,814.684027 262.900942,867.026179 93.4478862,854.424014 C86.6433378,853.917962 76.1463282,853.917962 61.9568575,854.424014 L61.9568575,919.819925 C75.7597862,919.104984 86.4124142,918.794984 93.9147417,918.889924 C167.404547,919.819925 254.967675,919.819925 297.998649,919.819925 Z" id="Oval-2" fill="#90C3C8"></path>
                <path d="M945.167414,116.572409 C922.481821,113.483403 905,94.0332503 905,70.5 C905,44.8187591 925.818759,24 951.5,24 C955.732214,24 959.832371,24.5654029 963.729056,25.6247943 C972.246808,16.0392723 984.66813,10 998.5,10 C1015.84443,10 1030.97094,19.4960471 1038.96407,33.5726877 C1046.62219,18.4029535 1062.34623,8 1080.5,8 C1106.18124,8 1127,28.8187591 1127,54.5 C1127,80.1812409 1106.18124,101 1080.5,101 C1079.74704,101 1078.99826,100.982104 1078.25406,100.946713 C1073.65847,114.915385 1060.50693,125 1045,125 C1040.24235,125 1035.70641,124.050722 1031.57126,122.331239 C1024.12824,138.0937 1008.08777,149 989.5,149 C968.724025,149 951.130406,135.374713 945.167414,116.572409 Z" id="Combined-Shape-Copy-5" fill="#BEBEBE"></path>
                <path d="M984.167414,157.572409 C961.481821,154.483403 944,135.03325 944,111.5 C944,85.8187591 964.818759,65 990.5,65 C994.732214,65 998.832371,65.5654029 1002.72906,66.6247943 C1011.24681,57.0392723 1023.66813,51 1037.5,51 C1054.84443,51 1069.97094,60.4960471 1077.96407,74.5726877 C1085.62219,59.4029535 1101.34623,49 1119.5,49 C1145.18124,49 1166,69.8187591 1166,95.5 C1166,121.181241 1145.18124,142 1119.5,142 C1118.74704,142 1117.99826,141.982104 1117.25406,141.946713 C1112.65847,155.915385 1099.50693,166 1084,166 C1079.24235,166 1074.70641,165.050722 1070.57126,163.331239 C1063.12824,179.0937 1047.08777,190 1028.5,190 C1007.72403,190 990.130406,176.374713 984.167414,157.572409 Z" id="Combined-Shape-Copy-4" fill="#C8C8C8"></path>
                <path d="M516.4375,919 L692,919 C681.036458,1000.58594 651.776042,1041.37891 604.21875,1041.37891 C556.661458,1041.37891 527.401042,1000.58594 516.4375,919 Z" id="Rectangle-7" fill="#87B6BB"></path>
                <path d="M63,919 L487,919 C456.635417,979.661458 405.6875,1018.99349 334.15625,1036.99609 C262.625,1054.9987 172.239583,1064 63,1064 L63,919 Z" id="Rectangle-8" fill="#87B6BB"></path>
                <path d="M851.632813,920.017847 L794,713.097925 C806.940104,709.949308 820.391927,705.066406 834.355469,698.449219 C855.011917,688.660327 858.333135,685.086269 865.767578,680.207031 C869.065145,678.042833 876.046947,675.640489 886.712985,673 L944.011719,920.017847 C922.140625,904.31342 907.197266,896.461206 899.181641,896.461206 C891.166016,896.461206 875.316406,904.31342 851.632813,920.017847 Z" id="Path-2" fill="#8DA887"></path>
                <path d="M667.404297,634.921875 L750.885764,710.585816 C771.208452,712.768663 785.205515,713.368964 792.876953,712.386719 C817.357314,709.252273 832.200912,701.985414 834.655273,700.557617 C848.444182,692.536076 859.038733,684.581298 869.018555,679.192383 C874.254934,676.364837 879.536528,674.005217 884.457031,673.124023 C901.266927,670.113607 919.744466,669.58138 939.889648,671.527344 L928.115234,567.142578 C919.422209,566.08754 912.8851,566.08754 908.503906,567.142578 C870.978166,576.179178 844.668184,587.657615 832.076172,591.615234 C803.679806,600.181939 784.863074,605.754856 775.625977,608.333984 C760.183271,612.645806 724.109378,621.508436 667.404297,634.921875 Z" id="Path-3" fill="#9AB994"></path>
                <polygon id="Path-5" fill="#AFCEA9" points="179.58738 494.557378 162.472177 616.766307 137.410203 631.77841 63.3301303 652.194967 63.3301303 581.84887"></polygon>
            </g>
        </g>
    </g>
</svg>