<?xml version="1.0" encoding="UTF-8"?>
<svg width="293px" height="335px" viewBox="0 0 293 335" version="1.1" xmlns="http://www.w3.org/2000/svg" xmlns:xlink="http://www.w3.org/1999/xlink">
    <!-- Generator: Sketch 50.2 (55047) - http://www.bohemiancoding.com/sketch -->
    <title>raindrops</title>
    <desc>Created with Sketch.</desc>
    <defs></defs>
    <g id="Symbols" stroke="none" stroke-width="1" fill="none" fill-rule="evenodd">
        <g id="raindrops" transform="translate(167.000000, 220.500000) rotate(-30.000000) translate(-167.000000, -220.500000) translate(-8.000000, 66.000000)">
            <g id="raindrop" transform="translate(61.000000, 148.000000)">
                <path d="M21.5,55 C33.3741221,55 43,45.3741221 43,33.5 C43,21.6258779 58.0787651,6.43089957 60.2313146,1.50512471 C62.383864,-3.42065016 28.7230086,9.30229871 22.8784005,12.0493445 C17.0337925,14.7963903 0,21.6258779 0,33.5 C0,45.3741221 9.62587788,55 21.5,55 Z" id="Oval-2" fill="#5FA3D1"></path>
                <path d="M14.7286324,51.1784754 C15.5429568,51.1784754 10.2315744,41.843276 10.6344882,33.3843091 C11.0019331,25.669995 17.1963851,18.7446182 15.7461691,19.0956714 C14.4252167,19.4154339 1.20517963,27.7035576 3.20566205,36.6596749 C5.20614446,45.6157922 14.018525,51.1784754 14.7286324,51.1784754 Z" id="Oval-3" fill="#D8D8D8"></path>
            </g>
            <g id="raindrop-copy-8" transform="translate(0.000000, 95.000000)">
                <path d="M21.5,55 C33.3741221,55 43,45.3741221 43,33.5 C43,21.6258779 58.0787651,6.43089957 60.2313146,1.50512471 C62.383864,-3.42065016 28.7230086,9.30229871 22.8784005,12.0493445 C17.0337925,14.7963903 0,21.6258779 0,33.5 C0,45.3741221 9.62587788,55 21.5,55 Z" id="Oval-2" fill="#5FA3D1"></path>
                <path d="M14.7286324,51.1784754 C15.5429568,51.1784754 10.2315744,41.843276 10.6344882,33.3843091 C11.0019331,25.669995 17.1963851,18.7446182 15.7461691,19.0956714 C14.4252167,19.4154339 1.20517963,27.7035576 3.20566205,36.6596749 C5.20614446,45.6157922 14.018525,51.1784754 14.7286324,51.1784754 Z" id="Oval-3" fill="#D8D8D8"></path>
            </g>
            <g id="raindrop-copy-7" transform="translate(289.000000, 0.000000)">
                <path d="M21.5,55 C33.3741221,55 43,45.3741221 43,33.5 C43,21.6258779 58.0787651,6.43089957 60.2313146,1.50512471 C62.383864,-3.42065016 28.7230086,9.30229871 22.8784005,12.0493445 C17.0337925,14.7963903 0,21.6258779 0,33.5 C0,45.3741221 9.62587788,55 21.5,55 Z" id="Oval-2" fill="#5FA3D1"></path>
                <path d="M14.7286324,51.1784754 C15.5429568,51.1784754 10.2315744,41.843276 10.6344882,33.3843091 C11.0019331,25.669995 17.1963851,18.7446182 15.7461691,19.0956714 C14.4252167,19.4154339 1.20517963,27.7035576 3.20566205,36.6596749 C5.20614446,45.6157922 14.018525,51.1784754 14.7286324,51.1784754 Z" id="Oval-3" fill="#D8D8D8"></path>
            </g>
            <g id="raindrop-copy-6" transform="translate(259.000000, 73.000000)">
                <path d="M21.5,55 C33.3741221,55 43,45.3741221 43,33.5 C43,21.6258779 58.0787651,6.43089957 60.2313146,1.50512471 C62.383864,-3.42065016 28.7230086,9.30229871 22.8784005,12.0493445 C17.0337925,14.7963903 0,21.6258779 0,33.5 C0,45.3741221 9.62587788,55 21.5,55 Z" id="Oval-2" fill="#5FA3D1"></path>
                <path d="M14.7286324,51.1784754 C15.5429568,51.1784754 10.2315744,41.843276 10.6344882,33.3843091 C11.0019331,25.669995 17.1963851,18.7446182 15.7461691,19.0956714 C14.4252167,19.4154339 1.20517963,27.7035576 3.20566205,36.6596749 C5.20614446,45.6157922 14.018525,51.1784754 14.7286324,51.1784754 Z" id="Oval-3" fill="#D8D8D8"></path>
            </g>
            <g id="raindrop-copy-5" transform="translate(189.000000, 28.000000)">
                <path d="M21.5,55 C33.3741221,55 43,45.3741221 43,33.5 C43,21.6258779 58.0787651,6.43089957 60.2313146,1.50512471 C62.383864,-3.42065016 28.7230086,9.30229871 22.8784005,12.0493445 C17.0337925,14.7963903 0,21.6258779 0,33.5 C0,45.3741221 9.62587788,55 21.5,55 Z" id="Oval-2" fill="#5FA3D1"></path>
                <path d="M14.7286324,51.1784754 C15.5429568,51.1784754 10.2315744,41.843276 10.6344882,33.3843091 C11.0019331,25.669995 17.1963851,18.7446182 15.7461691,19.0956714 C14.4252167,19.4154339 1.20517963,27.7035576 3.20566205,36.6596749 C5.20614446,45.6157922 14.018525,51.1784754 14.7286324,51.1784754 Z" id="Oval-3" fill="#D8D8D8"></path>
            </g>
            <g id="raindrop-copy-4" transform="translate(228.000000, 159.000000)">
                <path d="M21.5,55 C33.3741221,55 43,45.3741221 43,33.5 C43,21.6258779 58.0787651,6.43089957 60.2313146,1.50512471 C62.383864,-3.42065016 28.7230086,9.30229871 22.8784005,12.0493445 C17.0337925,14.7963903 0,21.6258779 0,33.5 C0,45.3741221 9.62587788,55 21.5,55 Z" id="Oval-2" fill="#5FA3D1"></path>
                <path d="M14.7286324,51.1784754 C15.5429568,51.1784754 10.2315744,41.843276 10.6344882,33.3843091 C11.0019331,25.669995 17.1963851,18.7446182 15.7461691,19.0956714 C14.4252167,19.4154339 1.20517963,27.7035576 3.20566205,36.6596749 C5.20614446,45.6157922 14.018525,51.1784754 14.7286324,51.1784754 Z" id="Oval-3" fill="#D8D8D8"></path>
            </g>
            <g id="raindrop-copy-3" transform="translate(92.000000, 60.000000)">
                <path d="M21.5,55 C33.3741221,55 43,45.3741221 43,33.5 C43,21.6258779 58.0787651,6.43089957 60.2313146,1.50512471 C62.383864,-3.42065016 28.7230086,9.30229871 22.8784005,12.0493445 C17.0337925,14.7963903 0,21.6258779 0,33.5 C0,45.3741221 9.62587788,55 21.5,55 Z" id="Oval-2" fill="#5FA3D1"></path>
                <path d="M14.7286324,51.1784754 C15.5429568,51.1784754 10.2315744,41.843276 10.6344882,33.3843091 C11.0019331,25.669995 17.1963851,18.7446182 15.7461691,19.0956714 C14.4252167,19.4154339 1.20517963,27.7035576 3.20566205,36.6596749 C5.20614446,45.6157922 14.018525,51.1784754 14.7286324,51.1784754 Z" id="Oval-3" fill="#D8D8D8"></path>
            </g>
            <g id="raindrop-copy-2" transform="translate(164.000000, 116.000000)">
                <path d="M21.5,55 C33.3741221,55 43,45.3741221 43,33.5 C43,21.6258779 58.0787651,6.43089957 60.2313146,1.50512471 C62.383864,-3.42065016 28.7230086,9.30229871 22.8784005,12.0493445 C17.0337925,14.7963903 0,21.6258779 0,33.5 C0,45.3741221 9.62587788,55 21.5,55 Z" id="Oval-2" fill="#5FA3D1"></path>
                <path d="M14.7286324,51.1784754 C15.5429568,51.1784754 10.2315744,41.843276 10.6344882,33.3843091 C11.0019331,25.669995 17.1963851,18.7446182 15.7461691,19.0956714 C14.4252167,19.4154339 1.20517963,27.7035576 3.20566205,36.6596749 C5.20614446,45.6157922 14.018525,51.1784754 14.7286324,51.1784754 Z" id="Oval-3" fill="#D8D8D8"></path>
            </g>
            <g id="raindrop-copy" transform="translate(122.000000, 200.000000)">
                <path d="M21.5,55 C33.3741221,55 43,45.3741221 43,33.5 C43,21.6258779 58.0787651,6.43089957 60.2313146,1.50512471 C62.383864,-3.42065016 28.7230086,9.30229871 22.8784005,12.0493445 C17.0337925,14.7963903 0,21.6258779 0,33.5 C0,45.3741221 9.62587788,55 21.5,55 Z" id="Oval-2" fill="#5FA3D1"></path>
                <path d="M14.7286324,51.1784754 C15.5429568,51.1784754 10.2315744,41.843276 10.6344882,33.3843091 C11.0019331,25.669995 17.1963851,18.7446182 15.7461691,19.0956714 C14.4252167,19.4154339 1.20517963,27.7035576 3.20566205,36.6596749 C5.20614446,45.6157922 14.018525,51.1784754 14.7286324,51.1784754 Z" id="Oval-3" fill="#D8D8D8"></path>
            </g>
            <g id="raindrop-copy-9" transform="translate(198.000000, 253.000000)">
                <path d="M21.5,55 C33.3741221,55 43,45.3741221 43,33.5 C43,21.6258779 58.0787651,6.43089957 60.2313146,1.50512471 C62.383864,-3.42065016 28.7230086,9.30229871 22.8784005,12.0493445 C17.0337925,14.7963903 0,21.6258779 0,33.5 C0,45.3741221 9.62587788,55 21.5,55 Z" id="Oval-2" fill="#5FA3D1"></path>
                <path d="M14.7286324,51.1784754 C15.5429568,51.1784754 10.2315744,41.843276 10.6344882,33.3843091 C11.0019331,25.669995 17.1963851,18.7446182 15.7461691,19.0956714 C14.4252167,19.4154339 1.20517963,27.7035576 3.20566205,36.6596749 C5.20614446,45.6157922 14.018525,51.1784754 14.7286324,51.1784754 Z" id="Oval-3" fill="#D8D8D8"></path>
            </g>
        </g>
    </g>
</svg>